HIERARCHY
ROOT newVegas:Hips
{
	OFFSET 0.000000 96.479958 0.000000
	CHANNELS 6 Xposition Yposition Zposition Xrotation Yrotation Zrotation
	JOINT newVegas:Pelvis
	{
		OFFSET 0.000000 0.000000 0.000000
		CHANNELS 3 Xrotation Yrotation Zrotation
		JOINT newVegas:LeftUpLeg
		{
			OFFSET 18.735201 -5.666702 -4.541200
			CHANNELS 3 Xrotation Yrotation Zrotation
			JOINT newVegas:LeftLeg
			{
				OFFSET -0.021200 -31.938179 0.493100
				CHANNELS 3 Xrotation Yrotation Zrotation
				JOINT newVegas:LeftFoot
				{
					OFFSET 0.021200 -31.938179 -4.336299
					CHANNELS 3 Xrotation Yrotation Zrotation
					JOINT newVegas:LeftToeBase
					{
						OFFSET 0.943001 -26.722000 15.023500
						CHANNELS 3 Xrotation Yrotation Zrotation
						End Site
						{
							OFFSET 0.000000 30.670183 0.000000
						}
					}
				}
				JOINT newVegas:Left_PantLeg
				{
					OFFSET 0.663870 -9.044666 -1.108900
					CHANNELS 3 Xrotation Yrotation Zrotation
					End Site
					{
						OFFSET 1.415995 20.635357 0.000000
					}
				}
			}
		}
		JOINT newVegas:RightUpLeg
		{
			OFFSET -18.735201 -5.666702 -4.541200
			CHANNELS 3 Xrotation Yrotation Zrotation
			JOINT newVegas:RightLeg
			{
				OFFSET 0.018946 -31.938133 0.493100
				CHANNELS 3 Xrotation Yrotation Zrotation
				JOINT newVegas:RightFoot
				{
					OFFSET -0.018946 -31.938126 -4.336299
					CHANNELS 3 Xrotation Yrotation Zrotation
					JOINT newVegas:RightToeBase
					{
						OFFSET -0.943001 -26.722004 15.023500
						CHANNELS 3 Xrotation Yrotation Zrotation
						End Site
						{
							OFFSET 0.000000 30.670187 0.000000
						}
					}
				}
				JOINT newVegas:Right_PantLeg
				{
					OFFSET -0.661674 -9.044716 -1.108900
					CHANNELS 3 Xrotation Yrotation Zrotation
					End Site
					{
						OFFSET -1.415958 20.635269 0.000000
					}
				}
			}
		}
	}
	JOINT newVegas:Spine
	{
		OFFSET 0.000000 10.199997 -0.299500
		CHANNELS 3 Xrotation Yrotation Zrotation
		JOINT newVegas:Spine1
		{
			OFFSET 0.000000 11.900002 -1.516600
			CHANNELS 3 Xrotation Yrotation Zrotation
			JOINT newVegas:Spine2
			{
				OFFSET 0.000000 13.600006 -2.842500
				CHANNELS 3 Xrotation Yrotation Zrotation
				JOINT newVegas:Neck
				{
					OFFSET 0.000000 9.624100 -2.890100
					CHANNELS 3 Xrotation Yrotation Zrotation
					JOINT newVegas:Head
					{
						OFFSET 0.000000 14.068802 -1.351900
						CHANNELS 3 Xrotation Yrotation Zrotation
						JOINT newVegas:Hair_Back
						{
							OFFSET 0.000000 3.231903 -17.524799
							CHANNELS 3 Xrotation Yrotation Zrotation
							End Site
							{
								OFFSET 0.000000 19.849884 0.000000
							}
						}
						JOINT newVegas:Hair_Front
						{
							OFFSET 0.000000 31.260406 4.573800
							CHANNELS 3 Xrotation Yrotation Zrotation
							JOINT newVegas:Hair_Front1
							{
								OFFSET 0.000000 2.284103 11.993300
								CHANNELS 3 Xrotation Yrotation Zrotation
								JOINT newVegas:Hair_Front2
								{
									OFFSET 0.000000 2.284103 11.993300
									CHANNELS 3 Xrotation Yrotation Zrotation
									End Site
									{
										OFFSET 0.000000 12.208862 0.000000
									}
								}
							}
						}
						JOINT newVegas:Jowel
						{
							OFFSET 0.000000 -7.458206 6.864100
							CHANNELS 3 Xrotation Yrotation Zrotation
							End Site
							{
								OFFSET 0.000000 19.849884 0.000000
							}
						}
					}
				}
				JOINT newVegas:LeftShoulder
				{
					OFFSET 15.263000 10.923401 -0.547700
					CHANNELS 3 Xrotation Yrotation Zrotation
					JOINT newVegas:LeftArm
					{
						OFFSET 25.438599 -2.830597 -13.032500
						CHANNELS 3 Xrotation Yrotation Zrotation
						JOINT newVegas:LeftForeArm
						{
							OFFSET 29.960503 0.000000 0.000000
							CHANNELS 3 Xrotation Yrotation Zrotation
							JOINT newVegas:LeftHand
							{
								OFFSET 27.849251 0.000000 0.000000
								CHANNELS 3 Xrotation Yrotation Zrotation
								JOINT newVegas:LeftHandThumb1
								{
									OFFSET 4.487587 -3.305161 6.305391
									CHANNELS 3 Xrotation Yrotation Zrotation
									JOINT newVegas:LeftHandThumb2
									{
										OFFSET 5.480453 -3.164139 3.164143
										CHANNELS 3 Xrotation Yrotation Zrotation
										JOINT newVegas:LeftHandThumb3
										{
											OFFSET 5.159721 -2.978973 2.978967
											CHANNELS 3 Xrotation Yrotation Zrotation
											End Site
											{
												OFFSET 2.494507 5.926697 1.738678
											}
										}
									}
								}
								JOINT newVegas:LeftHandIndex1
								{
									OFFSET 18.578728 -0.527832 5.208049
									CHANNELS 3 Xrotation Yrotation Zrotation
									JOINT newVegas:LeftHandIndex2
									{
										OFFSET 3.192009 0.000000 0.000000
										CHANNELS 3 Xrotation Yrotation Zrotation
										JOINT newVegas:LeftHandIndex3
										{
											OFFSET 3.835129 0.000000 0.000000
											CHANNELS 3 Xrotation Yrotation Zrotation
											End Site
											{
												OFFSET -0.034599 3.816971 0.371180
											}
										}
									}
								}
								JOINT newVegas:LeftHandMiddle1
								{
									OFFSET 18.476105 0.000000 0.000000
									CHANNELS 3 Xrotation Yrotation Zrotation
									JOINT newVegas:LeftHandMiddle2
									{
										OFFSET 3.324875 0.000000 0.000000
										CHANNELS 3 Xrotation Yrotation Zrotation
										JOINT newVegas:LeftHandMiddle3
										{
											OFFSET 4.596550 0.000000 0.000000
											CHANNELS 3 Xrotation Yrotation Zrotation
											End Site
											{
												OFFSET 0.057701 4.578827 0.399218
											}
										}
									}
								}
								JOINT newVegas:LeftHandRing1
								{
									OFFSET 17.732719 0.121887 -4.201567
									CHANNELS 3 Xrotation Yrotation Zrotation
									JOINT newVegas:LeftHandRing2
									{
										OFFSET 2.733170 0.000000 0.000000
										CHANNELS 3 Xrotation Yrotation Zrotation
										JOINT newVegas:LeftHandRing3
										{
											OFFSET 3.178268 0.000000 0.000000
											CHANNELS 3 Xrotation Yrotation Zrotation
											End Site
											{
												OFFSET 0.119102 3.170624 0.185394
											}
										}
									}
								}
								JOINT newVegas:LeftHandPinky1
								{
									OFFSET 15.989624 -0.606689 -7.535461
									CHANNELS 3 Xrotation Yrotation Zrotation
									JOINT newVegas:LeftHandPinky2
									{
										OFFSET 2.538986 0.000000 0.000000
										CHANNELS 3 Xrotation Yrotation Zrotation
										JOINT newVegas:LeftHandPinky3
										{
											OFFSET 2.593102 0.000000 0.000000
											CHANNELS 3 Xrotation Yrotation Zrotation
											End Site
											{
												OFFSET -0.150902 2.584198 0.152708
											}
										}
									}
								}
							}
							JOINT newVegas:Left_Sleeve
							{
								OFFSET 0.267448 -0.649796 0.577675
								CHANNELS 3 Xrotation Yrotation Zrotation
								End Site
								{
									OFFSET 0.000000 15.991241 0.000000
								}
							}
							JOINT newVegas:Left_CapeC
							{
								OFFSET 15.715958 -8.608795 -6.935905
								CHANNELS 3 Xrotation Yrotation Zrotation
								JOINT newVegas:Left_CapeC1
								{
									OFFSET 0.000000 -8.688499 0.000000
									CHANNELS 3 Xrotation Yrotation Zrotation
									End Site
									{
										OFFSET 0.000000 8.688499 0.000000
									}
								}
							}
						}
						JOINT newVegas:Left_CapeB
						{
							OFFSET 26.118385 -8.608795 -7.079235
							CHANNELS 3 Xrotation Yrotation Zrotation
							JOINT newVegas:Left_CapeB1
							{
								OFFSET 0.000000 -8.688499 0.000000
								CHANNELS 3 Xrotation Yrotation Zrotation
								End Site
								{
									OFFSET 0.000000 8.688499 0.000000
								}
							}
						}
						JOINT newVegas:Left_CapeA
						{
							OFFSET 5.115639 -8.608795 -10.395809
							CHANNELS 3 Xrotation Yrotation Zrotation
							JOINT newVegas:Left_CapeA1
							{
								OFFSET 0.000000 -8.688499 0.000000
								CHANNELS 3 Xrotation Yrotation Zrotation
								End Site
								{
									OFFSET 0.000000 8.688499 0.000000
								}
							}
						}
					}
				}
				JOINT newVegas:RightShoulder
				{
					OFFSET -15.263000 10.923401 -0.547700
					CHANNELS 3 Xrotation Yrotation Zrotation
					JOINT newVegas:RightArm
					{
						OFFSET -25.438599 -2.830597 -13.032500
						CHANNELS 3 Xrotation Yrotation Zrotation
						JOINT newVegas:RightForeArm
						{
							OFFSET -29.960503 0.000000 0.000000
							CHANNELS 3 Xrotation Yrotation Zrotation
							JOINT newVegas:RightHand
							{
								OFFSET -27.849251 0.000000 0.000000
								CHANNELS 3 Xrotation Yrotation Zrotation
								JOINT newVegas:RightHandThumb1
								{
									OFFSET -4.487587 -3.305161 6.305391
									CHANNELS 3 Xrotation Yrotation Zrotation
									JOINT newVegas:RightHandThumb2
									{
										OFFSET -5.480453 -3.164139 3.164143
										CHANNELS 3 Xrotation Yrotation Zrotation
										JOINT newVegas:RightHandThumb3
										{
											OFFSET -5.159721 -2.978973 2.978967
											CHANNELS 3 Xrotation Yrotation Zrotation
											End Site
											{
												OFFSET -2.494507 5.926697 1.738678
											}
										}
									}
								}
								JOINT newVegas:RightHandIndex1
								{
									OFFSET -18.578728 -0.527832 5.208049
									CHANNELS 3 Xrotation Yrotation Zrotation
									JOINT newVegas:RightHandIndex2
									{
										OFFSET -3.192009 0.000000 0.000000
										CHANNELS 3 Xrotation Yrotation Zrotation
										JOINT newVegas:RightHandIndex3
										{
											OFFSET -3.835129 0.000000 0.000000
											CHANNELS 3 Xrotation Yrotation Zrotation
											End Site
											{
												OFFSET 0.034599 3.816971 0.371180
											}
										}
									}
								}
								JOINT newVegas:RightHandMiddle1
								{
									OFFSET -18.476105 0.000000 0.000000
									CHANNELS 3 Xrotation Yrotation Zrotation
									JOINT newVegas:RightHandMiddle2
									{
										OFFSET -3.324875 0.000000 0.000000
										CHANNELS 3 Xrotation Yrotation Zrotation
										JOINT newVegas:RightHandMiddle3
										{
											OFFSET -4.596550 0.000000 0.000000
											CHANNELS 3 Xrotation Yrotation Zrotation
											End Site
											{
												OFFSET -0.057701 4.578827 0.399218
											}
										}
									}
								}
								JOINT newVegas:RightHandRing1
								{
									OFFSET -17.732719 0.121887 -4.201567
									CHANNELS 3 Xrotation Yrotation Zrotation
									JOINT newVegas:RightHandRing2
									{
										OFFSET -2.733170 0.000000 0.000000
										CHANNELS 3 Xrotation Yrotation Zrotation
										JOINT newVegas:RightHandRing3
										{
											OFFSET -3.178268 0.000000 0.000000
											CHANNELS 3 Xrotation Yrotation Zrotation
											End Site
											{
												OFFSET -0.119102 3.170624 0.185394
											}
										}
									}
								}
								JOINT newVegas:RightHandPinky1
								{
									OFFSET -15.989624 -0.606689 -7.535461
									CHANNELS 3 Xrotation Yrotation Zrotation
									JOINT newVegas:RightHandPinky2
									{
										OFFSET -2.538986 0.000000 0.000000
										CHANNELS 3 Xrotation Yrotation Zrotation
										JOINT newVegas:RightHandPinky3
										{
											OFFSET -2.593102 0.000000 0.000000
											CHANNELS 3 Xrotation Yrotation Zrotation
											End Site
											{
												OFFSET 0.150902 2.584198 0.152708
											}
										}
									}
								}
							}
							JOINT newVegas:Right_CapeC
							{
								OFFSET -15.715958 -8.608795 -6.935905
								CHANNELS 3 Xrotation Yrotation Zrotation
								JOINT newVegas:Right_CapeC1
								{
									OFFSET 0.000000 -8.688499 0.000000
									CHANNELS 3 Xrotation Yrotation Zrotation
									End Site
									{
										OFFSET 0.000000 8.688499 0.000000
									}
								}
							}
							JOINT newVegas:Right_Sleeve
							{
								OFFSET -0.267448 -0.649994 0.577675
								CHANNELS 3 Xrotation Yrotation Zrotation
								End Site
								{
									OFFSET 0.000000 15.991302 0.000000
								}
							}
						}
						JOINT newVegas:Right_CapeA
						{
							OFFSET -5.115540 -8.608795 -10.395824
							CHANNELS 3 Xrotation Yrotation Zrotation
							JOINT newVegas:Right_CapeA1
							{
								OFFSET 0.000000 -8.688499 0.000000
								CHANNELS 3 Xrotation Yrotation Zrotation
								End Site
								{
									OFFSET 0.000000 8.688499 0.000000
								}
							}
						}
						JOINT newVegas:Right_CapeB
						{
							OFFSET -26.118187 -8.608795 -7.079266
							CHANNELS 3 Xrotation Yrotation Zrotation
							JOINT newVegas:Right_CapeB1
							{
								OFFSET 0.000000 -8.688499 0.000000
								CHANNELS 3 Xrotation Yrotation Zrotation
								End Site
								{
									OFFSET 0.000000 8.688499 0.000000
								}
							}
						}
					}
				}
				JOINT newVegas:Left_Collar
				{
					OFFSET 18.625099 8.655502 8.828100
					CHANNELS 3 Xrotation Yrotation Zrotation
					JOINT newVegas:Left_Collar1
					{
						OFFSET 14.783401 10.540405 -1.259500
						CHANNELS 3 Xrotation Yrotation Zrotation
						End Site
						{
							OFFSET 0.000000 18.199875 0.000000
						}
					}
				}
				JOINT newVegas:Collar_Back
				{
					OFFSET 0.000000 15.630707 -20.132601
					CHANNELS 3 Xrotation Yrotation Zrotation
					End Site
					{
						OFFSET 0.000000 22.523010 0.000000
					}
				}
				JOINT newVegas:Left_Peck
				{
					OFFSET 17.239599 -5.132599 25.482599
					CHANNELS 3 Xrotation Yrotation Zrotation
					End Site
					{
						OFFSET 0.000000 22.523010 0.000000
					}
				}
				JOINT newVegas:Right_Peck
				{
					OFFSET -17.239599 -5.132202 25.482599
					CHANNELS 3 Xrotation Yrotation Zrotation
					End Site
					{
						OFFSET 0.000000 22.523010 0.000000
					}
				}
				JOINT newVegas:Right_Collar
				{
					OFFSET -18.625099 8.655792 8.828100
					CHANNELS 3 Xrotation Yrotation Zrotation
					JOINT newVegas:Right_Collar1
					{
						OFFSET -14.783401 10.539993 -1.259500
						CHANNELS 3 Xrotation Yrotation Zrotation
						End Site
						{
							OFFSET 0.000000 18.199631 0.000000
						}
					}
				}
			}
		}
		JOINT newVegas:Belly
		{
			OFFSET 0.000000 -6.540398 9.014299
			CHANNELS 3 Xrotation Yrotation Zrotation
			End Site
			{
				OFFSET 0.000000 11.566666 0.000000
			}
		}
	}
	JOINT newVegas:ElvisFacialAnim_Joint
	{
		OFFSET 1.000000 -95.330101 -8.825800
		CHANNELS 3 Xrotation Yrotation Zrotation
		End Site
		{
			OFFSET 0.000000 35.315800 0.000000
		}
	}
}
MOTION
Frames: 4
Frame Time: 0.016667
-1.701245 93.711334 2.385727 2.912644 -28.993306 1.190043 -0.000000 0.000000 0.000000 -19.101276 17.301969 13.857761 23.892616 12.123107 -1.505848 -6.535912 -3.224979 -8.272331 -0.000000 0.000000 -0.000000 0.000000 0.000001 0.000001 -12.326938 -0.373917 -11.129679 16.879170 9.900356 0.865251 -8.229485 -1.386816 8.928340 0.000000 0.000001 0.000000 0.000001 -0.000001 -0.000000 7.836038 -0.358657 -2.682607 1.099251 -0.880570 2.383463 1.108681 -0.590455 2.446367 -0.922940 3.567100 -1.380653 -0.922938 3.567104 -1.380653 0.000000 -0.000000 -0.000000 -0.922868 3.567096 -1.380657 -0.923085 3.567127 -1.380647 0.000000 -0.000000 -0.000000 0.000000 -0.000000 0.000000 -0.057390 -8.759444 -0.061011 -55.249745 0.330145 -41.449898 11.585942 -65.829561 13.007160 -50.191157 12.353352 4.611957 17.542472 -5.723967 -12.930215 10.850487 26.127739 8.644825 0.000002 -0.000000 -0.000003 13.974944 1.202192 -55.004326 0.370811 1.161726 -65.441873 -0.000001 -0.000002 -0.000002 7.504719 1.174472 -63.778517 1.807852 1.475655 -64.567937 -0.000001 0.000001 0.000001 8.574313 2.179120 -75.149013 -0.207631 1.009276 -57.855063 0.000000 -0.000001 -0.000001 10.030113 13.637082 -84.750244 0.877108 0.062300 -64.595517 -0.000000 -0.000002 0.000000 -0.000001 0.000003 -0.000001 -0.000001 0.000003 -0.000001 -0.000001 0.000004 -0.000001 0.000000 -0.000003 0.000001 0.000000 -0.000004 0.000000 0.000000 -0.000003 0.000001 -0.000002 -0.000004 0.000000 4.849288 7.760150 5.560448 -0.933504 -2.176874 61.845662 11.299281 18.943443 -3.987523 -0.459216 6.620150 5.830119 15.788517 -2.734472 -17.205882 -2.198327 -31.113557 7.361279 0.000000 -0.000005 -0.000003 2.374669 -3.640939 8.487425 -2.147349 -2.473146 18.673266 -0.000001 0.000001 0.000000 -1.990491 -5.687065 13.662152 0.282188 -5.088224 26.988296 -0.000000 -0.000000 -0.000001 -3.248689 -8.544119 11.772725 4.043125 -4.063236 33.263626 0.000000 0.000002 0.000002 -6.473320 -11.333591 23.262806 10.715333 -2.558926 34.822869 0.000000 -0.000002 0.000001 -0.000000 -0.000001 0.000001 -0.000000 -0.000000 0.000001 -0.000000 -0.000001 0.000002 0.000000 0.000000 -0.000000 0.000001 0.000000 -0.000000 0.000000 0.000000 -0.000000 0.000001 -0.000001 -0.000000 -0.000000 -0.000001 0.000000 -0.000000 -0.000001 0.000000 -0.000000 -0.000001 0.000000 -0.000000 -0.000001 0.000000 -0.000000 -0.000001 0.000000 -0.000000 -0.000001 0.000000 -0.000000 -0.000001 0.000000 -0.000001 -0.000002 -0.000000 -0.000000 0.000000 0.000000 
-1.619392 93.672760 2.275028 2.958266 -28.864516 1.169054 0.000000 -0.000002 0.000000 -19.505796 17.250386 13.981438 24.252306 12.666477 -1.494860 -6.574444 -3.925549 -8.323543 0.000000 -0.000000 -0.000000 -0.000000 0.000000 0.000000 -12.517073 -0.385457 -11.079494 17.100314 9.698792 0.821966 -8.286004 -1.379803 8.929368 0.000000 -0.000000 0.000000 0.000001 -0.000000 0.000000 7.802418 -0.358479 -2.686689 1.074049 -0.871344 2.364664 1.083488 -0.588034 2.427852 -0.906644 3.573652 -1.396253 -0.906652 3.573649 -1.396255 0.000001 0.000002 -0.000000 -0.906646 3.573668 -1.396258 -0.906647 3.573650 -1.396255 -0.000001 0.000000 -0.000000 0.000001 0.000002 -0.000000 -0.004171 -8.315561 -0.161325 -55.335259 0.717932 -41.094817 10.897135 -65.775412 12.310798 -50.186147 12.360826 4.470041 17.542484 -5.723981 -12.930217 10.824632 26.057624 8.641510 0.000003 0.000000 0.000001 13.985142 1.290470 -55.047391 0.371077 1.161925 -65.457528 -0.000001 0.000000 0.000001 7.465912 1.197206 -63.754727 1.806395 1.476397 -64.514244 0.000000 -0.000001 0.000003 8.571878 2.201289 -75.001290 -0.208888 1.005534 -57.694533 -0.000001 -0.000001 -0.000000 9.971826 13.637673 -84.708395 0.873399 0.061150 -64.420732 -0.000001 0.000000 -0.000001 -0.000000 -0.000002 0.000001 -0.000000 -0.000002 0.000001 -0.000001 -0.000001 0.000002 0.000001 0.000001 -0.000002 0.000001 -0.000000 -0.000002 0.000001 0.000001 -0.000002 0.000001 -0.000001 -0.000002 4.851988 7.811878 5.709651 -0.844156 -2.132282 61.674614 11.420384 18.937666 -4.006109 -0.452335 6.527038 5.826805 15.788515 -2.734472 -17.205882 -2.106416 -31.245657 7.373548 0.000000 -0.000002 -0.000001 2.374291 -3.644136 8.645134 -2.147461 -2.473286 18.952855 -0.000001 0.000000 0.000000 -1.989612 -5.689717 13.819817 0.282329 -5.090144 27.267987 -0.000001 0.000000 -0.000003 -3.249569 -8.547460 11.930100 4.042387 -4.063364 33.543206 0.000000 0.000002 -0.000000 -6.473359 -11.335262 23.420401 10.719493 -2.558884 35.102726 -0.000000 0.000002 -0.000002 0.000000 -0.000001 -0.000002 0.000001 -0.000000 -0.000002 0.000000 -0.000001 -0.000002 -0.000000 -0.000001 -0.000003 -0.000000 -0.000001 -0.000001 -0.000000 -0.000001 -0.000003 -0.000000 -0.000001 -0.000001 0.000002 0.000001 -0.000000 0.000002 0.000001 -0.000000 0.000002 0.000001 -0.000000 0.000002 0.000001 -0.000000 0.000002 0.000001 -0.000000 0.000002 0.000001 -0.000000 0.000002 0.000001 -0.000000 0.000000 -0.000000 0.000000 0.000000 -0.000002 0.000000 
-1.526989 93.632011 2.173279 3.001580 -28.714197 1.140380 -0.000000 -0.000000 0.000000 -19.934252 17.223978 14.115307 24.640403 13.207745 -1.486521 -6.631811 -4.675924 -8.364465 -0.000000 0.000000 -0.000000 0.000000 -0.000000 -0.000001 -12.671631 -0.460804 -11.020461 17.286601 9.467947 0.734705 -8.342630 -1.359245 8.980486 0.000000 0.000002 -0.000000 0.000000 0.000001 -0.000000 7.765421 -0.351240 -2.681527 1.051469 -0.856355 2.346640 1.060734 -0.578901 2.409568 -0.955177 3.583765 -1.334381 -0.955180 3.583761 -1.334389 0.000000 0.000001 0.000000 -0.955189 3.583851 -1.334414 -0.955116 3.583688 -1.334390 0.000001 -0.000002 -0.000000 0.000000 0.000001 -0.000000 -0.095201 -7.833572 -0.261091 -55.289060 1.044025 -40.597541 10.451489 -65.790411 11.849278 -50.183814 12.334669 4.429940 17.542467 -5.723993 -12.930191 10.824658 26.057686 8.641517 0.000001 0.000000 -0.000004 13.985142 1.290580 -55.047343 0.371060 1.161947 -65.457473 -0.000002 -0.000001 -0.000000 7.465865 1.197190 -63.754727 1.806395 1.476397 -64.514197 0.000003 0.000000 -0.000002 8.571852 2.201269 -75.001317 -0.208870 1.005561 -57.694594 -0.000000 0.000001 -0.000001 9.971809 13.637647 -84.708430 0.873406 0.061155 -64.421586 -0.000000 -0.000002 0.000000 0.000003 0.000001 -0.000000 0.000003 0.000001 -0.000000 0.000002 0.000001 0.000000 0.000002 -0.000001 -0.000002 0.000002 -0.000002 -0.000002 0.000002 -0.000001 -0.000002 0.000002 -0.000003 -0.000002 4.852112 7.875468 5.834439 -0.731460 -2.101487 61.529998 11.542489 18.958853 -4.028576 -0.441493 6.372634 5.804624 15.788517 -2.734472 -17.205883 -2.008256 -31.386396 7.386901 0.000002 -0.000002 -0.000003 2.373888 -3.647531 8.813136 -2.147530 -2.473424 19.250794 0.000000 0.000001 0.000000 -1.988687 -5.692533 13.987976 0.282493 -5.092154 27.566012 -0.000000 0.000000 -0.000002 -3.250498 -8.551009 12.097804 4.041633 -4.063497 33.840879 0.000001 -0.000001 0.000002 -6.473462 -11.337020 23.588166 10.719567 -2.558994 35.400720 0.000000 0.000005 0.000001 0.000001 0.000000 -0.000002 0.000000 -0.000000 -0.000002 0.000001 0.000000 -0.000002 -0.000001 0.000000 -0.000000 -0.000000 0.000000 0.000000 -0.000001 0.000000 -0.000000 -0.000001 -0.000000 0.000000 0.000002 0.000000 -0.000000 0.000002 0.000000 -0.000000 0.000002 0.000000 -0.000000 0.000002 0.000000 -0.000000 0.000002 0.000000 -0.000000 0.000002 0.000000 -0.000000 0.000002 0.000000 -0.000000 0.000000 -0.000002 0.000000 -0.000000 -0.000000 0.000000 
-1.418947 93.585342 2.087482 3.034828 -28.503397 1.087624 0.000000 -0.000000 0.000000 -20.427467 17.216752 14.232115 25.058050 12.360166 -1.570978 -6.697786 -4.140617 -8.084821 -0.000000 -0.000000 -0.000000 0.000000 0.000000 0.000001 -12.763220 -0.591229 -10.949019 17.438204 9.175452 0.611010 -8.413430 -1.331840 9.082953 0.000000 -0.000002 -0.000000 0.000001 0.000001 -0.000001 7.720077 -0.330687 -2.650183 1.037690 -0.825892 2.332715 1.046381 -0.551329 2.393829 -0.977234 3.618372 -1.310256 -0.977222 3.618381 -1.310261 0.000000 0.000000 -0.000000 -0.977163 3.618402 -1.310265 -0.977236 3.618374 -1.310256 -0.000001 0.000002 -0.000000 0.000000 0.000000 -0.000000 -0.122211 -7.332434 -0.371027 -55.212958 1.531635 -40.105614 9.829972 -65.922595 11.210636 -50.174576 12.301538 4.331350 17.542465 -5.723970 -12.930223 10.824814 26.058106 8.641554 0.000001 -0.000001 -0.000003 13.985201 1.291164 -55.047097 0.371059 1.161945 -65.456981 -0.000000 0.000000 -0.000002 7.465650 1.197336 -63.754523 1.806388 1.476430 -64.513971 0.000000 0.000001 0.000002 8.571852 2.201187 -75.001611 -0.208875 1.005564 -57.694902 -0.000000 -0.000000 -0.000002 9.972051 13.637653 -84.708689 0.873450 0.061173 -64.423068 -0.000000 0.000002 -0.000000 0.000000 -0.000002 0.000002 0.000000 -0.000002 0.000002 -0.000001 -0.000002 0.000002 0.000000 0.000002 -0.000001 0.000000 0.000001 -0.000002 0.000000 0.000002 -0.000001 0.000000 0.000000 -0.000002 4.844679 7.972232 5.880416 -0.550611 -2.122589 61.472843 11.675093 19.081213 -4.071084 -0.420798 6.034998 5.735729 15.788515 -2.734471 -17.205882 -1.904645 -31.534563 7.401406 0.000002 0.000000 0.000001 2.373489 -3.651112 8.990284 -2.147580 -2.473559 19.564583 -0.000000 0.000000 -0.000000 -1.987678 -5.695486 14.164830 0.282659 -5.094225 27.879649 -0.000000 -0.000000 0.000001 -3.251458 -8.554749 12.274419 4.040902 -4.063618 34.154689 0.000000 0.000003 -0.000005 -6.473512 -11.338853 23.764955 10.719651 -2.559120 35.714366 0.000000 0.000001 0.000002 -0.000000 -0.000000 0.000000 0.000000 0.000000 -0.000001 -0.000000 -0.000000 0.000000 -0.000004 0.000001 -0.000000 -0.000004 0.000000 -0.000000 -0.000004 0.000001 -0.000000 -0.000004 -0.000000 -0.000000 -0.000000 -0.000000 -0.000000 -0.000000 -0.000000 -0.000000 -0.000000 -0.000000 -0.000000 -0.000000 -0.000000 -0.000000 -0.000000 -0.000000 -0.000000 -0.000000 -0.000000 -0.000000 -0.000000 -0.000000 -0.000000 -0.000001 -0.000001 0.000000 0.000000 -0.000000 0.000000 
